# xmcd
# Track frame offsets:
# 150
# 21267
# 39711
# 55842
# 84025
# 107115
# 129341
# 149666
# 169435
# 186812
# 206269
# 223158
#
# Disc length: 3254 seconds
# Revision: 0
# Processed by: cddbd v1.5.2PL0 Copyright (c) Steve Scherf et al.
# Submitted via: VisiTrax 2.10.3.257 - For more info visit www.synapsa.com
#
DISCID=ad0cb40c
DTITLE=Deana Carter - The Chain
DYEAR=2007
DGENRE=
TTITLE0=Deana Carter - Crying
TTITLE1=Deana Carter and Kris Kristofferson - Help Me Make It Through the Night
TTITLE2=Deana Carter and Dolly Parton - Love Is Like a Butterfly
TTITLE3=Deana Carter and Harper Simon and Paul Simon - The Boxer
TTITLE4=Deana Carter - Lay Lady Lay
TTITLE5=Deana Carter - The Weight
TTITLE6=Deana Carter and Jessi Colter - I'm Not Lisa
TTITLE7=Deana Carter and John Anderson - Swinging
TTITLE8=Deana Carter and Willie Nelson - On the Road Again
TTITLE9=Deana Carter and Shooter Jennings - Good Hearted Woman
TTITLE10=Deana Carter and George Jones) - He Still Thinks I Care
TTITLE11=Deana Carter - Old Man
EXTD=This album is one I ve been hoping to make since I was a little girl
EXTD=It is a tribute to my father, Fred Carter, Jr., and some of the amaz
EXTD=ing artists and records he's been a part of.\nDeana Carter
EXTT0=
EXTT1=
EXTT2=
EXTT3=
EXTT4=
EXTT5=
EXTT6=
EXTT7=
EXTT8=
EXTT9=
EXTT10=
EXTT11=This album is one I ve been hoping to make since I was a little girl
EXTT11=It is a tribute to my father, Fred Carter, Jr., and some of the amaz
EXTT11=ing artists and records he s been a part of. Deana Carter\n\nWITH SPEC
EXTT11=IAL GUESTS KRIS KRISTOFFERSON, DOLLY PARTON, HARPER SIMON, JESSI COLTE
EXTT11=R, JOHN ANDERSON, WILLIE NELSON, SHOOTER JENNINGS AND GEORGE JONES
PLAYORDER=
